<?xml version="1.0" encoding="UTF-8"?>
<!DOCTYPE svg PUBLIC "-//W3C//DTD SVG 1.1//EN" "http://www.w3.org/Graphics/SVG/1.1/DTD/svg11.dtd">
<svg xmlns="http://www.w3.org/2000/svg" version="1.1" width="450px" height="190px" style="shape-rendering:geometricPrecision; text-rendering:geometricPrecision; image-rendering:optimizeQuality; fill-rule:evenodd; clip-rule:evenodd" xmlns:xlink="http://www.w3.org/1999/xlink">
<g><path style="opacity:1" fill="#c7261d" d="M 330.5,41.5 C 339.644,42.8208 348.81,42.8208 358,41.5C 359.107,41.5852 360.107,41.9186 361,42.5C 361.494,44.1341 361.66,45.8008 361.5,47.5C 358.729,47.4207 356.063,47.9207 353.5,49C 357.875,56.2509 362.375,63.4176 367,70.5C 371.351,64.4612 375.185,58.1278 378.5,51.5C 377.315,48.4012 374.982,47.0679 371.5,47.5C 371.34,45.8008 371.506,44.1341 372,42.5C 372.725,41.9415 373.558,41.6082 374.5,41.5C 382.673,42.8181 390.84,42.8181 399,41.5C 399.772,41.6448 400.439,41.9781 401,42.5C 401.494,44.1341 401.66,45.8008 401.5,47.5C 396.164,47.2509 391.164,48.4175 386.5,51C 380.97,59.0316 375.637,67.1983 370.5,75.5C 377.75,87.6682 385.25,99.6682 393,111.5C 393.903,112.701 395.069,113.535 396.5,114C 399.482,114.498 402.482,114.665 405.5,114.5C 405.5,116.167 405.5,117.833 405.5,119.5C 394.5,119.5 383.5,119.5 372.5,119.5C 372.5,117.833 372.5,116.167 372.5,114.5C 374.96,114.301 377.293,113.635 379.5,112.5C 374.901,103.621 369.568,95.2881 363.5,87.5C 358.322,94.8515 353.322,102.352 348.5,110C 349.569,112.65 351.569,114.15 354.5,114.5C 355.452,116.045 355.785,117.712 355.5,119.5C 348.167,119.5 340.833,119.5 333.5,119.5C 332.594,127.845 331.594,136.178 330.5,144.5C 308.167,144.5 285.833,144.5 263.5,144.5C 263.5,142.833 263.5,141.167 263.5,139.5C 266.85,139.665 270.183,139.498 273.5,139C 274,138.5 274.5,138 275,137.5C 275.667,116.5 275.667,95.5 275,74.5C 271.589,73.7069 268.089,73.2069 264.5,73C 263.594,71.3005 263.261,69.4672 263.5,67.5C 265.833,67.5 268.167,67.5 270.5,67.5C 270.776,61.3546 269.109,55.8546 265.5,51C 259.04,48.7986 252.373,47.9653 245.5,48.5C 245.167,70.1769 245.5,91.8436 246.5,113.5C 251.435,114.448 256.435,114.781 261.5,114.5C 261.5,116.5 261.5,118.5 261.5,120.5C 247.154,119.2 232.821,119.2 218.5,120.5C 216.717,118.977 216.051,116.977 216.5,114.5C 221.179,114.666 225.845,114.499 230.5,114C 231.416,113.626 232.25,113.126 233,112.5C 233.667,91.8333 233.667,71.1667 233,50.5C 226.154,47.7597 219.321,48.093 212.5,51.5C 209.146,56.2294 207.48,61.5627 207.5,67.5C 213.833,67.5 220.167,67.5 226.5,67.5C 226.5,69.1667 226.5,70.8333 226.5,72.5C 221.517,72.4124 216.851,73.579 212.5,76C 204.864,82.6352 197.53,89.6352 190.5,97C 199.442,110.941 208.776,124.608 218.5,138C 221.393,139.149 224.393,139.649 227.5,139.5C 227.5,141.167 227.5,142.833 227.5,144.5C 217.167,144.5 206.833,144.5 196.5,144.5C 196.5,142.833 196.5,141.167 196.5,139.5C 200.73,140.169 202.563,138.502 202,134.5C 195.5,124.833 189,115.167 182.5,105.5C 178.849,108.651 175.349,111.984 172,115.5C 171.5,123.159 171.334,130.826 171.5,138.5C 175.119,139.244 178.785,139.577 182.5,139.5C 182.5,141.167 182.5,142.833 182.5,144.5C 170.833,144.5 159.167,144.5 147.5,144.5C 147.5,142.833 147.5,141.167 147.5,139.5C 150.909,139.751 154.242,139.417 157.5,138.5C 158.833,116.833 158.833,95.1667 157.5,73.5C 154.17,72.9062 150.836,72.2396 147.5,71.5C 145.566,66.6953 144.066,61.6953 143,56.5C 141.75,53.8293 139.917,51.6626 137.5,50C 127.232,48.6009 116.898,48.1009 106.5,48.5C 106.5,57.8333 106.5,67.1667 106.5,76.5C 111.844,76.666 117.177,76.4994 122.5,76C 126.039,72.6132 127.372,68.4466 126.5,63.5C 128.167,63.5 129.833,63.5 131.5,63.5C 131.5,74.1667 131.5,84.8333 131.5,95.5C 129.833,95.5 128.167,95.5 126.5,95.5C 126.804,91.7846 126.137,88.2846 124.5,85C 118.732,82.772 112.732,81.9386 106.5,82.5C 106.18,93.0821 106.513,103.582 107.5,114C 117.975,115.096 128.308,114.429 138.5,112C 141.728,110.437 143.895,107.937 145,104.5C 146.74,99.9647 147.906,95.2981 148.5,90.5C 150.042,89.6993 151.708,89.366 153.5,89.5C 152.073,99.4866 150.74,109.487 149.5,119.5C 127.167,119.5 104.833,119.5 82.5,119.5C 82.5,117.833 82.5,116.167 82.5,114.5C 85.8499,114.665 89.1832,114.498 92.5,114C 93,113.5 93.5,113 94,112.5C 94.6667,91.5 94.6667,70.5 94,49.5C 90.5894,48.7069 87.0894,48.2069 83.5,48C 82.5939,46.3005 82.2606,44.4672 82.5,42.5C 104.167,42.5 125.833,42.5 147.5,42.5C 148.573,50.8246 149.573,59.158 150.5,67.5C 160.886,67.8093 171.219,67.476 181.5,66.5C 182.466,68.396 182.799,70.396 182.5,72.5C 178.766,72.3227 175.099,72.6561 171.5,73.5C 170.175,85.3398 170.175,97.3398 171.5,109.5C 172.107,109.376 172.44,109.043 172.5,108.5C 181.828,98.3388 191.661,88.6721 202,79.5C 205.702,75.568 204.868,73.2347 199.5,72.5C 199.34,70.8008 199.506,69.1341 200,67.5C 201.871,66.0027 202.871,64.0027 203,61.5C 203.501,55.4932 204.001,49.4932 204.5,43.5C 227.51,43.1669 250.51,43.5003 273.5,44.5C 274.661,52.1038 275.328,59.7704 275.5,67.5C 293.167,67.5 310.833,67.5 328.5,67.5C 329.886,76.4732 330.72,85.4732 331,94.5C 329.667,95.8333 328.333,95.8333 327,94.5C 326.855,86.702 324.022,80.202 318.5,75C 308.232,73.6009 297.898,73.1009 287.5,73.5C 287.5,82.8333 287.5,92.1667 287.5,101.5C 292.844,101.666 298.177,101.499 303.5,101C 307.039,97.6132 308.372,93.4466 307.5,88.5C 309.167,88.5 310.833,88.5 312.5,88.5C 312.5,99.1667 312.5,109.833 312.5,120.5C 310.833,120.5 309.167,120.5 307.5,120.5C 307.804,116.785 307.137,113.285 305.5,110C 299.732,107.772 293.732,106.939 287.5,107.5C 287.18,118.082 287.513,128.582 288.5,139C 298.975,140.096 309.308,139.429 319.5,137C 324.205,133.774 327.038,129.274 328,123.5C 327.601,120.549 327.101,117.549 326.5,114.5C 330.926,114.073 335.26,113.239 339.5,112C 347.051,102.393 353.718,92.2264 359.5,81.5C 353.266,70.7047 346.766,60.038 340,49.5C 336.417,47.7098 332.584,47.0431 328.5,47.5C 328.259,45.1137 328.925,43.1137 330.5,41.5 Z"/></g>
<g><path style="opacity:1" fill="#9a8e8d" d="M 330.5,41.5 C 328.925,43.1137 328.259,45.1137 328.5,47.5C 327.539,45.7354 327.205,43.7354 327.5,41.5C 328.5,41.5 329.5,41.5 330.5,41.5 Z"/></g>
<g><path style="opacity:1" fill="#c5281e" d="M 53.5,68.5 C 65.5,68.5 77.5,68.5 89.5,68.5C 89.5,70.1667 89.5,71.8333 89.5,73.5C 86.7508,73.2739 84.0841,73.6072 81.5,74.5C 80.9667,95.5558 80.1334,116.556 79,137.5C 69.9352,149.076 58.7685,151.576 45.5,145C 38.9935,139.774 37.9935,133.774 42.5,127C 48.765,124.424 52.765,126.424 54.5,133C 54.0186,136.814 52.0186,139.48 48.5,141C 57.163,146.667 63.663,144.833 68,135.5C 68.5,115.169 68.6666,94.8361 68.5,74.5C 63.547,73.6708 58.547,73.3375 53.5,73.5C 53.5,71.8333 53.5,70.1667 53.5,68.5 Z"/></g>
<g><path style="opacity:1" fill="#bd6f6f" d="M 153.5,89.5 C 151.708,89.366 150.042,89.6993 148.5,90.5C 148.791,89.3509 149.624,88.6842 151,88.5C 152.07,88.528 152.903,88.8614 153.5,89.5 Z"/></g>
<g><path style="opacity:1" fill="#828285" d="M 171.5,73.5 C 171.172,85.3453 171.505,97.012 172.5,108.5C 172.44,109.043 172.107,109.376 171.5,109.5C 170.175,97.3398 170.175,85.3398 171.5,73.5 Z"/></g>
</svg>
