<?xml version="1.0" encoding="UTF-8"?>
<!DOCTYPE svg PUBLIC "-//W3C//DTD SVG 1.1//EN" "http://www.w3.org/Graphics/SVG/1.1/DTD/svg11.dtd">
<svg xmlns="http://www.w3.org/2000/svg" version="1.1" width="900px" height="300px" style="shape-rendering:geometricPrecision; text-rendering:geometricPrecision; image-rendering:optimizeQuality; fill-rule:evenodd; clip-rule:evenodd" xmlns:xlink="http://www.w3.org/1999/xlink">
<g><path style="opacity:1" fill="#163e8e" d="M 176.5,47.5 C 191.504,47.3334 206.504,47.5001 221.5,48C 235.233,51.3999 244.067,59.8999 248,73.5C 248.5,87.1626 248.667,100.829 248.5,114.5C 243.167,114.5 237.833,114.5 232.5,114.5C 232.901,101.448 232.401,88.4479 231,75.5C 228.833,70.6667 225.333,67.1667 220.5,65C 206.167,64.3333 191.833,64.3333 177.5,65C 171.26,66.9081 167.427,71.0747 166,77.5C 165.5,86.8274 165.334,96.1607 165.5,105.5C 178.552,105.099 191.552,105.599 204.5,107C 208.612,108.779 211.778,111.612 214,115.5C 215.649,155.44 215.982,195.44 215,235.5C 213.257,240.91 209.757,244.744 204.5,247C 156.167,247.667 107.833,247.667 59.5,247C 54.2425,244.744 50.7425,240.91 49,235.5C 48.3333,196.5 48.3333,157.5 49,118.5C 51.3521,111.483 56.1854,107.316 63.5,106C 91.8314,105.5 120.165,105.333 148.5,105.5C 148.334,95.4944 148.5,85.4944 149,75.5C 152.387,60.2807 161.554,50.9473 176.5,47.5 Z M 90.5,139.5 C 101.465,149.965 112.298,160.631 123,171.5C 125.202,175.742 124.869,179.742 122,183.5C 111.667,193.833 101.333,204.167 91,214.5C 87.4144,211.616 84.7478,208.283 83,204.5C 92.1667,195.333 101.333,186.167 110.5,177C 101.333,167.833 92.1667,158.667 83,149.5C 82.3333,148.833 82.3333,148.167 83,147.5C 85.705,144.964 88.205,142.297 90.5,139.5 Z M 140.5,193.5 C 154.167,193.5 167.833,193.5 181.5,193.5C 181.5,197.833 181.5,202.167 181.5,206.5C 167.833,206.5 154.167,206.5 140.5,206.5C 140.5,202.167 140.5,197.833 140.5,193.5 Z"/></g>
<g><path style="opacity:1" fill="#147cc8" d="M 316.5,89.5 C 325.844,90.1185 335.178,90.9519 344.5,92C 348.069,92.3899 351.403,93.3899 354.5,95C 353.549,102.203 352.216,109.369 350.5,116.5C 348.333,116.833 346.167,117.167 344,117.5C 332.505,116.49 321.005,115.99 309.5,116C 306.634,119.943 306.968,123.61 310.5,127C 322.246,131.471 333.913,136.138 345.5,141C 360.72,152.517 364.887,167.351 358,185.5C 352.219,196.592 343.053,203.092 330.5,205C 311.667,207.386 293,206.386 274.5,202C 273.376,201.161 272.709,199.994 272.5,198.5C 273.263,191.518 274.597,184.685 276.5,178C 290.139,179.03 303.806,180.197 317.5,181.5C 324.747,181.934 327.58,178.6 326,171.5C 324.833,170.333 323.667,169.167 322.5,168C 310.594,163.921 298.928,159.254 287.5,154C 273.917,142.174 270.084,127.674 276,110.5C 278.553,101.28 284.386,95.447 293.5,93C 301.257,91.4469 308.924,90.2802 316.5,89.5 Z"/></g>
<g><path style="opacity:1" fill="#147cc8" d="M 393.5,89.5 C 399.833,89.5 406.167,89.5 412.5,89.5C 412.5,97.1667 412.5,104.833 412.5,112.5C 419.5,112.5 426.5,112.5 433.5,112.5C 433.5,118.833 433.5,125.167 433.5,131.5C 426.5,131.5 419.5,131.5 412.5,131.5C 412.333,146.837 412.5,162.17 413,177.5C 413.772,178.849 414.939,179.682 416.5,180C 421.155,180.499 425.821,180.666 430.5,180.5C 431.072,187.173 431.739,193.84 432.5,200.5C 432.182,201.647 431.516,202.481 430.5,203C 417.868,206.533 405.202,206.867 392.5,204C 384.714,201.212 380.214,195.712 379,187.5C 378.667,169.167 378.333,150.833 378,132.5C 373.263,131.531 368.43,131.197 363.5,131.5C 363.5,125.5 363.5,119.5 363.5,113.5C 368.6,113.571 373.6,112.904 378.5,111.5C 381.236,104.792 384.069,98.1258 387,91.5C 389.277,90.8828 391.444,90.2161 393.5,89.5 Z"/></g>
<g><path style="opacity:1" fill="#147cc8" d="M 564.5,89.5 C 578.504,89.3334 592.504,89.5001 606.5,90C 641.464,90.7533 655.298,108.253 648,142.5C 645.842,150.321 642.008,157.155 636.5,163C 631.292,164.642 625.959,165.642 620.5,166C 609.505,166.5 598.505,166.667 587.5,166.5C 587.5,179.167 587.5,191.833 587.5,204.5C 575.5,204.5 563.5,204.5 551.5,204.5C 551.5,166.5 551.5,128.5 551.5,90.5C 556.032,90.8182 560.366,90.4849 564.5,89.5 Z M 594.5,111.5 C 608.319,110.732 615.319,117.232 615.5,131C 615.094,134.735 614.094,138.235 612.5,141.5C 604.37,143.628 596.203,143.961 588,142.5C 587.333,132.833 587.333,123.167 588,113.5C 590.277,112.883 592.444,112.216 594.5,111.5 Z"/></g>
<g><path style="opacity:1" fill="#147cc8" d="M 480.5,110.5 C 523.834,106.67 542.334,126.337 536,169.5C 534.153,188.01 524.32,199.843 506.5,205C 496.218,206.536 485.885,206.87 475.5,206C 453.952,202.784 442.452,190.284 441,168.5C 439.332,152.832 441.665,137.832 448,123.5C 450.383,120.727 453.217,118.561 456.5,117C 464.463,114.178 472.463,112.012 480.5,110.5 Z M 480.5,133.5 C 485.179,133.334 489.845,133.501 494.5,134C 497.381,135.251 499.214,137.417 500,140.5C 501.531,150.448 501.865,160.448 501,170.5C 499.466,182.36 492.966,186.193 481.5,182C 479.106,180.048 477.606,177.548 477,174.5C 475.248,163.184 475.248,151.851 477,140.5C 477.139,137.555 478.306,135.221 480.5,133.5 Z"/></g>
<g><path style="opacity:1" fill="#147cc8" d="M 714.5,110.5 C 718.869,110.467 723.202,110.8 727.5,111.5C 727.421,121.211 726.754,130.878 725.5,140.5C 715.756,140.38 706.09,141.046 696.5,142.5C 695.5,163.156 695.167,183.823 695.5,204.5C 684.167,204.5 672.833,204.5 661.5,204.5C 661.5,173.833 661.5,143.167 661.5,112.5C 670.839,112.334 680.173,112.5 689.5,113C 690.765,117.555 692.265,122.055 694,126.5C 699.611,119.364 706.444,114.031 714.5,110.5 Z"/></g>
<g><path style="opacity:1" fill="#147cc8" d="M 773.5,110.5 C 788.808,108.827 803.141,111.66 816.5,119C 821.373,123.249 824.873,128.416 827,134.5C 837.853,194.349 813.686,216.849 754.5,202C 746.031,197.916 740.198,191.416 737,182.5C 731.812,163.171 732.812,144.171 740,125.5C 742.92,120.78 747.087,117.613 752.5,116C 759.509,113.666 766.509,111.833 773.5,110.5 Z M 773.5,133.5 C 778.179,133.334 782.845,133.501 787.5,134C 790.381,135.251 792.214,137.417 793,140.5C 794.566,150.773 794.899,161.107 794,171.5C 792.835,181.345 787.335,185.178 777.5,183C 773.23,181.321 770.73,178.155 770,173.5C 767.921,161.435 768.254,149.435 771,137.5C 771.662,136.016 772.496,134.683 773.5,133.5 Z"/></g>
</svg>
